<mxfile host="65bd71144e">
    <diagram id="RICId39cIMgauVZ07Ro7" name="Page-1">
        <mxGraphModel dx="970" dy="558" grid="0" gridSize="10" guides="1" tooltips="1" connect="1" arrows="1" fold="1" page="1" pageScale="1" pageWidth="827" pageHeight="1169" background="#8F8F8F" math="0" shadow="0">
            <root>
                <mxCell id="0"/>
                <mxCell id="1" parent="0"/>
                <mxCell id="hJ5J0gMYtO4naiDoK5Z1-66" style="edgeStyle=orthogonalEdgeStyle;rounded=0;orthogonalLoop=1;jettySize=auto;html=1;exitX=1.013;exitY=0.461;exitDx=0;exitDy=0;entryX=0;entryY=0.25;entryDx=0;entryDy=0;startArrow=classic;startFill=1;exitPerimeter=0;strokeWidth=2;" parent="1" source="3Hn2w7Pp_tICI_nnNUtR-1" target="hJ5J0gMYtO4naiDoK5Z1-35" edge="1">
                    <mxGeometry relative="1" as="geometry">
                        <mxPoint x="360" y="340" as="targetPoint"/>
                    </mxGeometry>
                </mxCell>
                <mxCell id="3Hn2w7Pp_tICI_nnNUtR-1" value="WeTransfer Products" style="rounded=0;whiteSpace=wrap;html=1;fillColor=none;dashed=1;verticalAlign=top;" parent="1" vertex="1">
                    <mxGeometry x="61" y="70" width="160" height="400" as="geometry"/>
                </mxCell>
                <mxCell id="hJ5J0gMYtO4naiDoK5Z1-28" value="Collect" style="rounded=1;whiteSpace=wrap;html=1;shadow=1;fillColor=#e1d5e7;strokeColor=#9673a6;" parent="1" vertex="1">
                    <mxGeometry x="81" y="240" width="120" height="60" as="geometry"/>
                </mxCell>
                <mxCell id="hJ5J0gMYtO4naiDoK5Z1-29" value="Transfer" style="rounded=1;whiteSpace=wrap;html=1;shadow=1;fillColor=#e1d5e7;strokeColor=#9673a6;" parent="1" vertex="1">
                    <mxGeometry x="81" y="100" width="120" height="60" as="geometry"/>
                </mxCell>
                <mxCell id="hJ5J0gMYtO4naiDoK5Z1-30" value="Paste" style="rounded=1;whiteSpace=wrap;html=1;shadow=1;fillColor=#e1d5e7;strokeColor=#9673a6;" parent="1" vertex="1">
                    <mxGeometry x="81" y="310" width="120" height="60" as="geometry"/>
                </mxCell>
                <mxCell id="hJ5J0gMYtO4naiDoK5Z1-31" value="Portals" style="rounded=1;whiteSpace=wrap;html=1;shadow=1;fillColor=#e1d5e7;strokeColor=#9673a6;" parent="1" vertex="1">
                    <mxGeometry x="81" y="170" width="120" height="60" as="geometry"/>
                </mxCell>
                <mxCell id="aiwav_-00P4QdnmfpgTm-4" style="edgeStyle=orthogonalEdgeStyle;rounded=0;orthogonalLoop=1;jettySize=auto;html=1;exitX=0.5;exitY=1;exitDx=0;exitDy=0;endArrow=none;endFill=0;" parent="1" source="hJ5J0gMYtO4naiDoK5Z1-35" target="aiwav_-00P4QdnmfpgTm-1" edge="1">
                    <mxGeometry relative="1" as="geometry">
                        <Array as="points">
                            <mxPoint x="437" y="300"/>
                            <mxPoint x="437" y="423"/>
                            <mxPoint x="427" y="423"/>
                        </Array>
                    </mxGeometry>
                </mxCell>
                <mxCell id="aiwav_-00P4QdnmfpgTm-9" style="edgeStyle=orthogonalEdgeStyle;rounded=0;orthogonalLoop=1;jettySize=auto;html=1;entryX=0;entryY=0.5;entryDx=0;entryDy=0;startArrow=classic;startFill=1;exitX=0.5;exitY=0;exitDx=0;exitDy=0;strokeColor=#FF00DD;strokeWidth=2;" parent="1" source="hJ5J0gMYtO4naiDoK5Z1-35" target="aiwav_-00P4QdnmfpgTm-8" edge="1">
                    <mxGeometry relative="1" as="geometry"/>
                </mxCell>
                <mxCell id="aiwav_-00P4QdnmfpgTm-28" style="edgeStyle=orthogonalEdgeStyle;rounded=0;orthogonalLoop=1;jettySize=auto;html=1;exitX=1;exitY=0.5;exitDx=0;exitDy=0;entryX=0;entryY=0.6;entryDx=0;entryDy=0;entryPerimeter=0;fontSize=10;startArrow=classic;startFill=1;strokeColor=#FF00DD;strokeWidth=2;" parent="1" source="hJ5J0gMYtO4naiDoK5Z1-35" target="aiwav_-00P4QdnmfpgTm-25" edge="1">
                    <mxGeometry relative="1" as="geometry"/>
                </mxCell>
                <mxCell id="aiwav_-00P4QdnmfpgTm-38" style="edgeStyle=orthogonalEdgeStyle;rounded=0;orthogonalLoop=1;jettySize=auto;html=1;exitX=0.75;exitY=1;exitDx=0;exitDy=0;entryX=-0.021;entryY=0.846;entryDx=0;entryDy=0;entryPerimeter=0;fontSize=10;startArrow=classic;startFill=1;strokeColor=#000000;strokeWidth=2;" parent="1" source="hJ5J0gMYtO4naiDoK5Z1-35" target="hJ5J0gMYtO4naiDoK5Z1-49" edge="1">
                    <mxGeometry relative="1" as="geometry">
                        <Array as="points">
                            <mxPoint x="473" y="334"/>
                            <mxPoint x="479" y="334"/>
                            <mxPoint x="479" y="485"/>
                        </Array>
                    </mxGeometry>
                </mxCell>
                <mxCell id="aiwav_-00P4QdnmfpgTm-39" value="Authorize &amp;amp; Serve Tokens" style="edgeLabel;html=1;align=center;verticalAlign=middle;resizable=0;points=[];fontSize=12;" parent="aiwav_-00P4QdnmfpgTm-38" vertex="1" connectable="0">
                    <mxGeometry x="0.0584" relative="1" as="geometry">
                        <mxPoint as="offset"/>
                    </mxGeometry>
                </mxCell>
                <mxCell id="hJ5J0gMYtO4naiDoK5Z1-35" value="Integrations API" style="rounded=1;whiteSpace=wrap;html=1;shadow=1;fillColor=#d5e8d4;strokeColor=#82b366;" parent="1" vertex="1">
                    <mxGeometry x="390" y="240" width="110" height="60" as="geometry"/>
                </mxCell>
                <mxCell id="aiwav_-00P4QdnmfpgTm-1" value="All&lt;br&gt;Secrets &amp;amp; keys" style="shape=datastore;whiteSpace=wrap;html=1;" parent="1" vertex="1">
                    <mxGeometry x="332" y="383" width="67.09" height="80" as="geometry"/>
                </mxCell>
                <mxCell id="aiwav_-00P4QdnmfpgTm-6" value="" style="group;strokeWidth=5;" parent="1" vertex="1" connectable="0">
                    <mxGeometry x="890" y="70" width="143" height="490" as="geometry"/>
                </mxCell>
                <mxCell id="hJ5J0gMYtO4naiDoK5Z1-49" value="Third party services" style="rounded=0;whiteSpace=wrap;html=1;fillColor=none;verticalAlign=top;dashed=1;" parent="aiwav_-00P4QdnmfpgTm-6" vertex="1">
                    <mxGeometry width="143" height="490" as="geometry"/>
                </mxCell>
                <mxCell id="hJ5J0gMYtO4naiDoK5Z1-50" value="Dropbox" style="rounded=1;whiteSpace=wrap;html=1;shadow=0;" parent="aiwav_-00P4QdnmfpgTm-6" vertex="1">
                    <mxGeometry x="13" y="40" width="120" height="60" as="geometry"/>
                </mxCell>
                <mxCell id="hJ5J0gMYtO4naiDoK5Z1-51" value="Slack" style="rounded=1;whiteSpace=wrap;html=1;shadow=0;" parent="aiwav_-00P4QdnmfpgTm-6" vertex="1">
                    <mxGeometry x="13" y="120" width="120" height="60" as="geometry"/>
                </mxCell>
                <mxCell id="hJ5J0gMYtO4naiDoK5Z1-52" value="Figma" style="rounded=1;whiteSpace=wrap;html=1;shadow=0;" parent="aiwav_-00P4QdnmfpgTm-6" vertex="1">
                    <mxGeometry x="13" y="200" width="120" height="60" as="geometry"/>
                </mxCell>
                <mxCell id="hJ5J0gMYtO4naiDoK5Z1-53" value="Adobe" style="rounded=1;whiteSpace=wrap;html=1;shadow=0;" parent="aiwav_-00P4QdnmfpgTm-6" vertex="1">
                    <mxGeometry x="11.5" y="280" width="120" height="60" as="geometry"/>
                </mxCell>
                <mxCell id="hJ5J0gMYtO4naiDoK5Z1-54" value="..." style="rounded=1;whiteSpace=wrap;html=1;shadow=0;" parent="aiwav_-00P4QdnmfpgTm-6" vertex="1">
                    <mxGeometry x="13" y="410" width="120" height="60" as="geometry"/>
                </mxCell>
                <mxCell id="aiwav_-00P4QdnmfpgTm-12" style="edgeStyle=orthogonalEdgeStyle;rounded=0;orthogonalLoop=1;jettySize=auto;html=1;entryX=0;entryY=0.25;entryDx=0;entryDy=0;startArrow=classic;startFill=1;strokeColor=#FF00DD;strokeWidth=2;" parent="1" source="aiwav_-00P4QdnmfpgTm-8" target="hJ5J0gMYtO4naiDoK5Z1-50" edge="1">
                    <mxGeometry relative="1" as="geometry"/>
                </mxCell>
                <mxCell id="aiwav_-00P4QdnmfpgTm-27" value="Paper" style="rounded=1;whiteSpace=wrap;html=1;shadow=1;fillColor=#e1d5e7;strokeColor=#9673a6;" parent="1" vertex="1">
                    <mxGeometry x="81" y="390" width="120" height="60" as="geometry"/>
                </mxCell>
                <mxCell id="aiwav_-00P4QdnmfpgTm-29" style="edgeStyle=orthogonalEdgeStyle;rounded=0;orthogonalLoop=1;jettySize=auto;html=1;exitX=1;exitY=0.5;exitDx=0;exitDy=0;entryX=0;entryY=0.5;entryDx=0;entryDy=0;fontSize=10;startArrow=classic;startFill=1;strokeColor=#FF00DD;strokeWidth=2;" parent="1" source="aiwav_-00P4QdnmfpgTm-25" target="hJ5J0gMYtO4naiDoK5Z1-53" edge="1">
                    <mxGeometry relative="1" as="geometry"/>
                </mxCell>
                <mxCell id="aiwav_-00P4QdnmfpgTm-37" value="" style="group" parent="1" vertex="1" connectable="0">
                    <mxGeometry x="581" y="48" width="178" height="374" as="geometry"/>
                </mxCell>
                <mxCell id="aiwav_-00P4QdnmfpgTm-30" value="" style="group;strokeWidth=12;rounded=1;" parent="aiwav_-00P4QdnmfpgTm-37" vertex="1" connectable="0">
                    <mxGeometry width="178" height="374" as="geometry"/>
                </mxCell>
                <mxCell id="aiwav_-00P4QdnmfpgTm-31" value="Services / Lambdas" style="rounded=0;whiteSpace=wrap;html=1;fillColor=none;verticalAlign=top;dashed=1;" parent="aiwav_-00P4QdnmfpgTm-30" vertex="1">
                    <mxGeometry width="178" height="374" as="geometry"/>
                </mxCell>
                <mxCell id="aiwav_-00P4QdnmfpgTm-21" value="...." style="rounded=1;whiteSpace=wrap;html=1;shadow=1;fillColor=#d5e8d4;strokeColor=#82b366;" parent="aiwav_-00P4QdnmfpgTm-37" vertex="1">
                    <mxGeometry x="29" y="282" width="120" height="60" as="geometry"/>
                </mxCell>
                <mxCell id="aiwav_-00P4QdnmfpgTm-23" value="" style="group" parent="aiwav_-00P4QdnmfpgTm-37" vertex="1" connectable="0">
                    <mxGeometry x="29" y="32" width="120" height="100" as="geometry"/>
                </mxCell>
                <mxCell id="aiwav_-00P4QdnmfpgTm-8" value="FileCommService&lt;br&gt;Dropbox&lt;br&gt;&lt;br&gt;&lt;br&gt;" style="rounded=1;whiteSpace=wrap;html=1;shadow=1;fillColor=#d5e8d4;strokeColor=#82b366;" parent="aiwav_-00P4QdnmfpgTm-23" vertex="1">
                    <mxGeometry width="120" height="100" as="geometry"/>
                </mxCell>
                <mxCell id="aiwav_-00P4QdnmfpgTm-19" value="&lt;font style=&quot;font-size: 10px&quot;&gt;DownloadServer instance&lt;/font&gt;" style="rounded=0;whiteSpace=wrap;html=1;" parent="aiwav_-00P4QdnmfpgTm-23" vertex="1">
                    <mxGeometry x="10" y="60" width="100" height="30" as="geometry"/>
                </mxCell>
                <mxCell id="aiwav_-00P4QdnmfpgTm-24" value="" style="group" parent="aiwav_-00P4QdnmfpgTm-37" vertex="1" connectable="0">
                    <mxGeometry x="29" y="147" width="120" height="100" as="geometry"/>
                </mxCell>
                <mxCell id="aiwav_-00P4QdnmfpgTm-25" value="FileCommService&lt;br&gt;Adobe&lt;br&gt;&lt;br&gt;" style="rounded=1;whiteSpace=wrap;html=1;shadow=1;fillColor=#d5e8d4;strokeColor=#82b366;" parent="aiwav_-00P4QdnmfpgTm-24" vertex="1">
                    <mxGeometry width="120" height="100" as="geometry"/>
                </mxCell>
                <mxCell id="aiwav_-00P4QdnmfpgTm-26" value="&lt;font style=&quot;font-size: 10px&quot;&gt;DownloadServer instance&lt;/font&gt;" style="rounded=0;whiteSpace=wrap;html=1;" parent="aiwav_-00P4QdnmfpgTm-24" vertex="1">
                    <mxGeometry x="10" y="60" width="100" height="30" as="geometry"/>
                </mxCell>
                <mxCell id="aiwav_-00P4QdnmfpgTm-41" style="edgeStyle=orthogonalEdgeStyle;rounded=0;orthogonalLoop=1;jettySize=auto;html=1;entryX=0;entryY=0.75;entryDx=0;entryDy=0;startArrow=classic;startFill=1;strokeColor=#FF00DD;strokeWidth=2;" parent="1" target="hJ5J0gMYtO4naiDoK5Z1-35" edge="1">
                    <mxGeometry relative="1" as="geometry">
                        <mxPoint x="222" y="280" as="sourcePoint"/>
                        <mxPoint x="400" y="280" as="targetPoint"/>
                    </mxGeometry>
                </mxCell>
                <mxCell id="aiwav_-00P4QdnmfpgTm-43" value="Legends" style="swimlane;fontStyle=0;childLayout=stackLayout;horizontal=1;startSize=30;horizontalStack=0;resizeParent=1;resizeParentMax=0;resizeLast=0;collapsible=1;marginBottom=0;rounded=1;fontSize=12;strokeWidth=3;" parent="1" vertex="1">
                    <mxGeometry x="56" y="516" width="272" height="90" as="geometry">
                        <mxRectangle x="73" y="542" width="67" height="30" as="alternateBounds"/>
                    </mxGeometry>
                </mxCell>
                <mxCell id="aiwav_-00P4QdnmfpgTm-51" value="" style="endArrow=none;html=1;rounded=0;fontSize=12;strokeColor=#000000;strokeWidth=2;entryX=0.989;entryY=-0.117;entryDx=0;entryDy=0;entryPerimeter=0;" parent="aiwav_-00P4QdnmfpgTm-43" edge="1">
                    <mxGeometry width="50" height="50" relative="1" as="geometry">
                        <mxPoint y="60" as="sourcePoint"/>
                        <mxPoint x="269.00800000000004" y="56.49000000000001" as="targetPoint"/>
                    </mxGeometry>
                </mxCell>
                <mxCell id="aiwav_-00P4QdnmfpgTm-48" value="" style="endArrow=classic;startArrow=classic;html=1;rounded=0;fontSize=12;strokeColor=#FF00DD;strokeWidth=2;" parent="aiwav_-00P4QdnmfpgTm-43" edge="1">
                    <mxGeometry width="50" height="50" relative="1" as="geometry">
                        <mxPoint x="159" y="44.5" as="sourcePoint"/>
                        <mxPoint x="262" y="44.5" as="targetPoint"/>
                    </mxGeometry>
                </mxCell>
                <mxCell id="aiwav_-00P4QdnmfpgTm-45" value="Service specific API" style="text;strokeColor=none;fillColor=none;align=left;verticalAlign=middle;spacingLeft=4;spacingRight=4;overflow=hidden;points=[[0,0.5],[1,0.5]];portConstraint=eastwest;rotatable=0;rounded=1;fontSize=12;" parent="aiwav_-00P4QdnmfpgTm-43" vertex="1">
                    <mxGeometry y="30" width="272" height="30" as="geometry"/>
                </mxCell>
                <mxCell id="aiwav_-00P4QdnmfpgTm-50" value="" style="endArrow=classic;startArrow=classic;html=1;rounded=0;fontSize=12;strokeColor=#000000;strokeWidth=2;" parent="aiwav_-00P4QdnmfpgTm-43" edge="1">
                    <mxGeometry width="50" height="50" relative="1" as="geometry">
                        <mxPoint x="158" y="74.5" as="sourcePoint"/>
                        <mxPoint x="261" y="74.5" as="targetPoint"/>
                    </mxGeometry>
                </mxCell>
                <mxCell id="aiwav_-00P4QdnmfpgTm-46" value="Generic agnostic API" style="text;strokeColor=none;fillColor=none;align=left;verticalAlign=middle;spacingLeft=4;spacingRight=4;overflow=hidden;points=[[0,0.5],[1,0.5]];portConstraint=eastwest;rotatable=0;rounded=1;fontSize=12;" parent="aiwav_-00P4QdnmfpgTm-43" vertex="1">
                    <mxGeometry y="60" width="272" height="30" as="geometry"/>
                </mxCell>
            </root>
        </mxGraphModel>
    </diagram>
</mxfile>